<?xml version="1.0" encoding="iso-8859-1"?>
<!-- Generator: Adobe Illustrator 16.0.0, SVG Export Plug-In . SVG Version: 6.00 Build 0)  -->
<!DOCTYPE svg PUBLIC "-//W3C//DTD SVG 1.1//EN" "http://www.w3.org/Graphics/SVG/1.1/DTD/svg11.dtd">
<svg xmlns="http://www.w3.org/2000/svg" xmlns:xlink="http://www.w3.org/1999/xlink" version="1.1" id="Capa_1" x="0px" y="0px" width="512px" height="512px" viewBox="0 0 349.757 349.756" style="enable-background:new 0 0 349.757 349.756;" xml:space="preserve">
<g>
	<g>
		<g>
			<g>
				<path d="M298.055,147.199c0,2.787-1.267,9.271-13.036,9.271h-54.037v178.856c0.072,0.48,0.144,1.159,0.144,1.939      c0,3.177-1.207,6.106-3.416,8.269c-2.858,2.798-7.224,4.222-12.988,4.222h-83.056c-11.493,0-14.525-8.149-14.525-12.454V160.236      H67.606c-13.841,0-15.904-6.594-15.904-10.521c0-6.293,5.996-12.577,7.197-13.775c3.176-4.305,89.036-118.195,101.529-130.718      c4.558-4.534,9.131-5.339,12.163-5.209c7.293,0.3,12.268,5.915,12.808,6.56l104.838,126.674      C291.75,134.631,298.055,141.068,298.055,147.199z" fill="#FFFFFF"/>
			</g>
		</g>
	</g>
</g>
<g>
</g>
<g>
</g>
<g>
</g>
<g>
</g>
<g>
</g>
<g>
</g>
<g>
</g>
<g>
</g>
<g>
</g>
<g>
</g>
<g>
</g>
<g>
</g>
<g>
</g>
<g>
</g>
<g>
</g>
</svg>
